<svg width="28" height="28" viewBox="0 0 43 43" xmlns="http://www.w3.org/2000/svg">
<path d="M30.4583 5.375H8.95833C6.96958 5.375 5.375 6.9875 5.375 8.95833V34.0417C5.375 36.0125 6.96958 37.625 8.95833 37.625H34.0417C36.0125 37.625 37.625 36.0125 37.625 34.0417V12.5417L30.4583 5.375ZM21.5 34.0417C18.5258 34.0417 16.125 31.6408 16.125 28.6667C16.125 25.6925 18.5258 23.2917 21.5 23.2917C24.4742 23.2917 26.875 25.6925 26.875 28.6667C26.875 31.6408 24.4742 34.0417 21.5 34.0417ZM26.875 16.125H8.95833V8.95833H26.875V16.125Z" />
</svg>
